<svg xmlns="http://www.w3.org/2000/svg" viewBox="0 0 180 180" fill="none">
  <rect width="180" height="180" rx="40" fill="#14174D"/>
  <circle cx="26" cy="32" r="6" fill="#FF4B6E"/>
  <circle cx="154" cy="28" r="5" fill="#FFC800"/>
  <circle cx="160" cy="62" r="4.5" fill="#00C2FF"/>
  <circle cx="22" cy="68" r="4" fill="#2ECC71"/>
  <path
    d="M90 18C64 28 42 28.5 34 34v52c0 38 30 60 56 68 26-8 56-30 56-68V34c-8-5.5-30-6-56-16z"
    fill="#6A3DF3"
  />
  <path
    d="M90 28C68 36 48.5 36.5 42 40v44c0 32 25 51 48 58 23-7 48-26 48-58V40c-6.5-3.5-22-4-48-12z"
    fill="#815BFF"
  />
  <ellipse cx="48" cy="84" rx="18" ry="24" fill="#5430C8" transform="rotate(-18 48 84)"/>
  <ellipse cx="50" cy="84" rx="10" ry="15" fill="#6A3DF3" transform="rotate(-18 50 84)"/>
  <ellipse cx="132" cy="84" rx="18" ry="24" fill="#E5B400" transform="rotate(18 132 84)"/>
  <ellipse cx="130" cy="84" rx="10" ry="15" fill="#FFC800" transform="rotate(18 130 84)"/>
  <rect x="54" y="50" width="72" height="72" rx="16" fill="#FFFFFF"/>
  <rect x="59" y="55" width="62" height="62" rx="13" fill="#FFF8F0" stroke="#14174D" stroke-width="3"/>
  <circle cx="76" cy="72" r="5" fill="#14174D"/>
  <circle cx="104" cy="72" r="5" fill="#14174D"/>
  <circle cx="90" cy="90" r="5" fill="#14174D"/>
  <circle cx="76" cy="108" r="5" fill="#14174D"/>
  <circle cx="104" cy="108" r="5" fill="#14174D"/>
  <ellipse cx="76" cy="84" rx="6.5" ry="7.5" fill="#14174D"/>
  <circle cx="78.5" cy="81.5" r="1.8" fill="#FFFFFF"/>
  <path d="M97 84c3.5-4 10-4 13.5 0" stroke="#14174D" stroke-width="4.5" stroke-linecap="round"/>
  <ellipse cx="90" cy="100" rx="5.5" ry="4" fill="#14174D"/>
  <path d="M83.5 105c2.6 8 10.4 8 13 0" fill="#FF4B6E"/>
  <path d="M90 140l4 8 8.5 1.2-6.2 6 .1 8.5L90 159.5l-6.4 4.2.1-8.5-6.2-6 8.5-1.2z" fill="#FFC800"/>
</svg>
